<?xml version="1.0" encoding="UTF-8"?>
<svg id="Capa_1" data-name="Capa 1" xmlns="http://www.w3.org/2000/svg" xmlns:xlink="http://www.w3.org/1999/xlink" viewBox="0 0 272.92 422.44">
  <defs>
    <style>
      .cls-1 {
        fill: url(#Degradado_sin_nombre_6-2);
      }

      .cls-1, .cls-2 {
        stroke-width: 0px;
      }

      .cls-2 {
        fill: url(#Degradado_sin_nombre_6);
      }
    </style>
    <linearGradient id="Degradado_sin_nombre_6" data-name="Degradado sin nombre 6" x1="0" y1="249.54" x2="272.92" y2="249.54" gradientUnits="userSpaceOnUse">
      <stop offset="0" stop-color="#77c2ab"/>
      <stop offset="1" stop-color="#036c75"/>
    </linearGradient>
    <linearGradient id="Degradado_sin_nombre_6-2" data-name="Degradado sin nombre 6" x1="90.53" y1="33.33" x2="182.39" y2="33.33" xlink:href="#Degradado_sin_nombre_6"/>
  </defs>
  <path class="cls-2" d="M.95,245.83c-.45-1.85-.8-2.61-.79-3.36.15-30.99-.83-62.04.81-92.95,2.07-38.86,36.91-71.7,75.78-72.35,39.98-.66,80.01-.76,119.98.17,44.93,1.05,80.85,43.99,75.69,88.83-2.19,19.07-9.91,35.45-23.34,49.15-5.56,5.67-5.97,4.51.33,10.56,10.89,10.47,17.91,23.1,21.33,37.74,1.39,5.96.91,6.44-5.01,6.48-8,.06-16-.05-24,.11-3.24.06-5.04-.97-6.4-4.15-7.49-17.6-20.9-26.75-40.1-26.79-32-.07-64-.08-95.99.14-35.08.24-63.11,28.42-63.4,63.4-.29,34.96,27.36,63.77,62.42,64.27,32.49.47,64.99.38,97.49.22,21.01-.1,36.39-12.46,41.44-32.99,1-4.06,2.8-5.44,6.8-5.32,7.66.24,15.33.24,23,.09,4.53-.09,5.8,1.79,5.16,6.13-4.03,27.45-18.48,47.31-43.18,59.79-1.34.68-2.69,1.4-4.12,1.79-3.85,1.05-5.08,3.2-4.71,7.33.69,7.67-3.06,13.65-9.52,16.62-6.34,2.91-13.77,2.07-18.44-3.13-2.52-2.81-4.22-6.75-5.16-10.46-.79-3.11-1.67-4.77-5.02-4.76-22.5.08-45,.15-67.49.07-4.07-.01-3.88,2.57-4.21,5.27-.99,8.11-7.34,14.19-15.18,14.68-8.59.54-15.7-4.27-17.9-12.12-.18-.64-.52-1.34-.4-1.94,1.36-7.05-2.71-8.92-8.63-10.96C-2.44,373.06-22.97,285.99,29.41,232.93c18.64-18.87,41.71-28.48,68.22-28.8,31.66-.38,63.33.04,94.99-.16,21.87-.14,40.22-15.5,44.57-36.73,5.67-27.73-14.75-54.49-43.05-54.91-38.49-.56-76.99-.38-115.48.13-22.22.29-41.67,19.76-42.54,42.04-.65,16.47-.42,32.99-.3,49.49.03,4.74-1.21,7.9-5.37,10.75-10.39,7.12-18.97,16.21-26.07,26.65-.87,1.28-1.89,2.47-3.41,4.45Z"/>
  <path class="cls-1" d="M136.41.18c5.66,0,11.32-.06,16.98.01,16.44.19,28.42,11.71,28.86,28.17.3,10.98,0,21.97.05,32.96.02,3.37-1.45,4.87-4.8,4.83-4.33-.05-8.66-.07-12.98.16-4.21.22-5.56-1.79-5.52-5.71.11-9.82.08-19.64,0-29.47-.08-8.76-3.04-11.68-11.77-11.72-7.49-.03-14.98-.04-22.47.12-6.93.15-10.02,3.24-10.11,10.22-.14,10.15-.21,20.31-.01,30.46.09,4.59-1.25,6.8-6.24,6.4-4.47-.35-8.98-.12-13.48-.04-2.8.05-4.34-.85-4.31-3.98.1-12.65-.34-25.32.22-37.95C91.39,11.73,103.88.57,117.44.11c6.32-.21,12.65-.04,18.98-.04v.11Z"/>
</svg>